<svg width="280" height="41" viewBox="0 0 280 41" fill="none" xmlns="http://www.w3.org/2000/svg">
<path d="M175.171 0C182.273 3.9252e-05 187.941 2.48273 191.697 6.96484L184.868 13.1709C182.273 10.2747 179.336 8.89551 175.717 8.89551C169.229 8.89563 164.927 13.1706 164.927 19.79C164.927 26.2028 169.229 30.6854 175.648 30.6855C177.629 30.6855 179.542 30.2718 181.454 29.4443V19.1006H190.878V34.8916C186.507 38.0636 180.498 39.7188 174.966 39.7188C162.946 39.7187 154.137 31.513 154.137 19.8594C154.137 8.27474 162.947 0 175.171 0ZM264.02 19.3076L280 39.0986H266.068L257.19 27.2373L248.449 39.0986H234.653L235.2 38.4082L267.024 0.896484H278.907L264.02 19.3076ZM29.6387 9.1709H10.585V15.584H27.3857V23.6523H10.585V30.6162H30.3906V39.0293H0V0.827148H29.6387V9.1709ZM61.8047 21.1699V0.827148H72.2539V39.0293H63.4443L46.7803 18.6875V39.0293H36.332V0.827148H45.1416L61.8047 21.1699ZM109.474 9.1709H90.4199V15.584H107.22V23.6523H90.4199V30.6162H110.225V39.0293H79.834V0.827148H109.474V9.1709ZM133.444 0.827148C143.756 0.827302 150.244 6.20656 150.244 14.9639C150.244 20.5491 147.512 24.7557 142.868 27.0312L150.995 39.0293H139.521L132.692 28.8926H126.888V39.0293H116.166V0.827148H133.444ZM213.073 15.998L222.02 0.827148H232.4L217.99 25.3066V39.0293H207.269V25.1689L192.858 0.827148H204.127L213.073 15.998ZM126.819 20.4805H132.761C137.2 20.4805 139.386 18.4113 139.386 14.8945C139.454 11.4467 137.2 9.30957 132.761 9.30957H126.819V20.4805ZM248.927 0.827148L255.073 8.75781L247.766 16.6182L235.269 0.827148H248.927Z" fill="#191819"/>
<path d="M248.928 0.827148H235.27L247.767 16.6181L255.074 8.75711L248.928 0.827148Z" fill="#7A37D8"/>
</svg>
