<svg width="130" height="19" viewBox="0 0 130 19" fill="none" xmlns="http://www.w3.org/2000/svg">
<path d="M81.3291 0C84.6267 0 87.259 1.15044 89.0029 3.22754L85.832 6.10352C84.6272 4.76142 83.2635 4.12209 81.583 4.12207C78.5709 4.12207 76.5734 6.10334 76.5732 9.1709C76.5732 12.1426 78.5705 14.2195 81.5508 14.2197C82.4703 14.2197 83.3583 14.028 84.2461 13.6445V8.85156H88.6221V16.1689C86.5929 17.6388 83.8026 18.4062 81.2344 18.4062C75.6539 18.4062 71.5635 14.6036 71.5635 9.20312C71.5635 3.83469 75.6536 7.58792e-05 81.3291 0ZM122.58 8.94727L130 18.1191H123.531L119.41 12.6221L115.352 18.1191H108.946L109.2 17.7988L123.976 0.415039H129.493L122.58 8.94727ZM13.7607 4.25H4.91504V7.22168H12.7148V10.9609H4.91504V14.1885H14.1094V18.0869H0V0.383789H13.7607V4.25ZM28.6953 9.81055V0.383789H33.5459V18.0869H29.4561L21.7197 8.66016V18.0869H16.8682V0.383789H20.959L28.6953 9.81055ZM50.8271 4.25H41.9805V7.22168H49.7803V10.9609H41.9805V14.1885H51.1758V18.0869H37.0654V0.383789H50.8271V4.25ZM61.9561 0.383789C66.7439 0.383789 69.7559 2.87625 69.7559 6.93457C69.7558 9.52269 68.4879 11.4718 66.332 12.5264L70.1045 18.0869H64.7783L61.6074 13.3896H58.9121V18.0869H53.9346V0.383789H61.9561ZM98.9268 7.41406L103.08 0.383789H107.9L101.21 11.7275V18.0869H96.2314V11.6641L89.541 0.383789H94.7734L98.9268 7.41406ZM58.8809 9.49121H61.6387C63.6996 9.49121 64.7148 8.53206 64.7148 6.90234C64.7466 5.30458 63.6996 4.31445 61.6387 4.31445H58.8809V9.49121ZM115.573 0.383789L118.427 4.05859L115.034 7.70117L109.231 0.383789H115.573Z" fill="#191819"/>
<path d="M115.572 0.383789H109.23L115.033 7.70155L118.426 4.05865L115.572 0.383789Z" fill="#7A37D8"/>
</svg>
