<svg width="118" height="80" viewBox="0 0 118 80" fill="none" xmlns="http://www.w3.org/2000/svg">
<path d="M75.5092 5.34587C71.0245 9.19689 68.8663 13.5033 69.1732 18.9779C75.6874 17.5325 82.0333 17.3048 86.5179 13.4538C91.0026 9.60278 92.7945 5.32608 92.7153 0C87.597 1.23747 79.984 1.49486 75.5092 5.34587Z" fill="#84BD00"/>
<path d="M57.4502 41.4204C57.4502 42.0737 56.9255 42.5984 56.2721 42.5984H33.8388C33.1854 42.5984 32.6607 42.0639 32.6607 41.4204V17.5421L47.2532 10.7806L64.4396 18.6113V10.9687L47.2334 3.11816L25.7109 13.0971V41.4303C25.7109 45.9248 29.3541 49.5679 33.8487 49.5679H56.282C60.7766 49.5679 64.4198 45.9248 64.4198 41.4303V27.0162H57.4601V41.4303L57.4502 41.4204Z" fill="#007A33"/>
<path d="M90.865 41.519V31.3124C90.865 26.8971 87.2911 23.3232 82.8758 23.3232H43.5234V30.2828H82.8758C83.45 30.2828 83.9153 30.7481 83.9153 31.3223V41.5289C83.9153 42.1031 83.45 42.5684 82.8758 42.5684H68.1545V51.2307L79.8464 63.2985H89.38L89.4592 63.2193L76.1834 49.5279H82.8659C87.2812 49.5279 90.8551 45.9541 90.8551 41.5388L90.865 41.519Z" fill="#007A33"/>
<path d="M11.9319 76.5742V78.0196H0.398438V76.5742H11.9319ZM8.1105 75.4358C8.4471 73.6934 8.5461 72.2777 8.5461 70.7433V69.6444H1.77453V68.1396H10.2489V70.2879C10.2489 72.8618 10.1004 74.0003 9.8034 75.6338L8.1105 75.4259V75.4358Z" fill="#007A33"/>
<path d="M14.6517 73.1991C16.5426 73.1991 18.186 73.1694 19.8888 73.011L20.0373 74.4365C18.4236 74.6147 16.4238 74.6444 12.9688 74.6444V70.4667H17.0574V69.1006H12.9688V67.6651H18.7305V71.8428H14.6418V73.209L14.6517 73.1991ZM16.404 78.0203H22.8984V79.4854H14.6814V75.6839H16.404V78.0302V78.0203ZM22.7004 76.0403H20.9976V67.0117H22.7004V76.0403Z" fill="#007A33"/>
<path d="M26.6538 75.1591H27.9705C29.1981 75.1591 30.594 75.0799 31.8513 74.9116L32.0394 76.3471C30.7623 76.5352 29.208 76.6045 27.5547 76.6045H24.9609V71.4863H29.0199V69.4271H24.9609V67.9818H30.7128V72.8822H26.6538V75.1591ZM34.6827 79.6041H32.9601V67.0215H34.6827V79.6041Z" fill="#007A33"/>
<path d="M42.541 74.1883V76.5742H47.4514V78.0195H35.918V76.5742H40.8283V74.1883H37.4822V68.001H45.8773V74.1883H42.5311H42.541ZM39.1949 72.7529H44.1745V69.4364H39.1949V72.7529Z" fill="#007A33"/>
<path d="M53.0198 67.5958V69.0016H49.7825V71.625C51.3269 71.6349 52.2773 71.5854 53.5049 71.4369L53.6633 72.7734C52.406 72.9912 51.2675 73.0308 48.1094 73.0308V67.5859H53.0099L53.0198 67.5958ZM58.4845 73.8822V77.4461H51.911V78.3766H58.7914V79.7329H50.2676V76.1591H56.8411V75.2285H50.1983V73.8921H58.4944L58.4845 73.8822ZM54.4156 70.9419H52.3466V69.5164H54.4156V67.1701H56.0293V73.2783H54.4156V70.932V70.9419ZM58.4845 73.308H56.8609V67.0117H58.4845V73.308Z" fill="#007A33"/>
<path d="M62.0189 72.7635C63.9098 72.7635 65.5532 72.7338 67.256 72.5754L67.4045 73.9812C65.7908 74.1594 63.791 74.1891 60.3359 74.1891V70.2192H64.4246V69.0412H60.3359V67.6156H66.0977V71.5854H62.009V72.7635H62.0189ZM62.207 77.6837V77.1392C62.207 75.7136 63.791 74.8226 66.1571 74.8226C68.5232 74.8226 70.1072 75.7136 70.1072 77.1392V77.6837C70.1072 79.1092 68.5232 80.0002 66.1571 80.0002C63.791 80.0002 62.207 79.1092 62.207 77.6837ZM63.8801 77.258V77.555C63.8801 78.0698 64.7612 78.5944 66.167 78.5944C67.5728 78.5944 68.4539 78.0698 68.4539 77.555V77.258C68.4539 76.7531 67.5728 76.2185 66.167 76.2185C64.7612 76.2185 63.8801 76.763 63.8801 77.258ZM70.0775 74.6741H68.3747V67.0117H70.0775V74.6741Z" fill="#007A33"/>
<path d="M71.8845 68.2892H74.4387V66.9131H76.1415V68.2892H78.567V69.7246H76.1415V70.2691C76.1415 70.9225 76.2801 71.269 76.9929 71.7937C77.5374 72.1996 78.2106 72.6352 78.9432 73.0806L78.0522 74.2983C77.4879 73.9419 76.8741 73.536 76.3494 73.1796C75.7653 72.7737 75.4386 72.5164 75.3891 72.3778H75.3792C75.3297 72.5362 74.8941 72.9025 74.2704 73.3776C73.6764 73.8231 73.1319 74.229 72.4389 74.6943L71.4688 73.437C72.3201 72.8727 73.1517 72.259 73.7259 71.7739C74.2011 71.368 74.4387 70.9522 74.4387 70.2691V69.7246H71.8845V68.2892ZM73.7655 77.6147V77.0505C73.7655 75.6744 75.3495 74.6844 77.6265 74.6844C79.9035 74.6844 81.4875 75.6744 81.4875 77.0505V77.6147C81.4875 78.9908 79.9035 79.9808 77.6265 79.9808C75.3495 79.9808 73.7655 78.9908 73.7655 77.6147ZM75.4386 77.1692V77.4959C75.4386 78.0107 76.2504 78.6047 77.6166 78.6047C78.9828 78.6047 79.7946 78.0107 79.7946 77.4959V77.1692C79.7946 76.6644 78.9828 76.0605 77.6166 76.0605C76.2504 76.0605 75.4386 76.6743 75.4386 77.1692ZM81.438 69.9523H83.0913V71.4373H81.438V74.5953H79.7352V67.0121H81.438V69.9523Z" fill="#007A33"/>
<path d="M88.2015 76.5738V74.0988H89.9043V76.5738H94.8147V78.0191H83.2812V76.5738H88.1916H88.2015ZM84.7167 68.0303H93.4089V69.4756H89.934V69.8122C89.934 70.6834 90.2409 71.1883 91.1814 71.7625C92.0229 72.2773 92.9634 72.7624 94.0623 73.3167L93.3 74.6433C92.409 74.2077 91.1616 73.5345 90.2904 73.0198C89.5875 72.604 89.2311 72.307 89.1123 72.0595H89.1024C88.9935 72.3169 88.5777 72.6139 87.8451 73.0495C86.9739 73.5642 85.7463 74.2275 84.8355 74.673L84.0633 73.3167C85.1622 72.7624 86.1027 72.2773 86.9442 71.7625C87.8748 71.1982 88.1916 70.6834 88.1916 69.8122V69.4756H84.7167V68.0303Z" fill="#007A33"/>
<path d="M100.35 74.3474C99.9339 73.9911 99.3597 73.4862 99.0132 73.1595C98.6073 72.7833 98.3796 72.5358 98.3004 72.3378H98.2905C98.2113 72.5655 98.0034 72.813 97.6272 73.209C97.2708 73.5753 96.657 74.1792 95.9739 74.7929L94.875 73.6545C95.4393 73.1496 96.0234 72.5952 96.5679 72.0309C97.2312 71.328 97.3896 70.7736 97.3896 69.8826V67.6948H99.0726V69.8035C99.0726 70.6944 99.1914 71.229 99.8547 71.8923C100.33 72.3675 100.825 72.8229 101.359 73.2684L100.36 74.3672L100.35 74.3474ZM99.2409 78.0104H106.052V79.4755H97.5282V75.3077H99.2508V78.0104H99.2409ZM101.795 71.1696H100.31V69.6847H101.795V67.18H103.409V75.6641H101.795V71.1696ZM105.854 75.9611H104.23V67.0117H105.854V75.9611Z" fill="#007A33"/>
<path d="M107.66 67.9917H113.551V69.437H109.373V71.4665H113.125V72.9119H109.373V75.0502H110.303C111.59 75.0502 113.184 75.0007 114.461 74.8225L114.64 76.258C113.382 76.4659 111.551 76.5055 109.898 76.5055H107.66V67.9917ZM113.808 71.417H115.877V67.0215H117.6V79.6041H115.877V72.8822H113.808V71.417Z" fill="#007A33"/>
</svg>
