<svg width="26" height="24" viewBox="0 0 26 24" fill="none" xmlns="http://www.w3.org/2000/svg">
<g id="Group 1133">
<g id="Group">
<path id="Vector" d="M18.8842 2.02755C17.184 3.48684 16.3657 5.12343 16.4839 7.20099C18.9569 6.65091 21.3618 6.56454 23.062 5.10525C24.7623 3.64596 25.4396 2.02301 25.4124 0C23.4712 0.468246 20.5844 0.568256 18.8842 2.02755Z" fill="#78A22E"/>
<path id="Vector_2" d="M12.038 15.7072C12.038 15.9526 11.838 16.1527 11.5925 16.1527H3.08678C2.84129 16.1527 2.63672 15.9526 2.63672 15.7026V6.64227L8.16929 4.07828L14.6884 7.05142V4.15102L8.16474 1.17334L0 4.95567V15.7026C0 17.4074 1.382 18.7894 3.08678 18.7894H11.597C13.3018 18.7894 14.6838 17.4074 14.6838 15.7026V10.2382H12.0471V15.7026L12.038 15.7072Z" fill="#00502E"/>
<path id="Vector_3" d="M24.707 15.7486V11.8799C24.707 10.2069 23.3477 8.84766 21.6748 8.84766H6.75V11.4844H21.6748C21.893 11.4844 22.0657 11.6617 22.0657 11.8753V15.7441C22.0657 15.9623 21.8884 16.135 21.6748 16.135H16.0922V19.4218L20.5292 23.9997H24.1433L24.1751 23.9725L19.1426 18.7808H21.6793C23.3523 18.7808 24.7116 17.4216 24.7116 15.7486H24.707Z" fill="#00502E"/>
</g>
</g>
</svg>
