<svg width="120" height="44" viewBox="0 0 120 44" fill="none" xmlns="http://www.w3.org/2000/svg">
<g clip-path="url(#clip0_6008_177662)">
<path d="M110.863 3.68871C108.484 5.7307 107.339 8.02077 107.504 10.9279C110.965 10.1582 114.33 10.0373 116.709 7.99533C119.088 5.95334 120.036 3.68235 119.998 0.851562C117.281 1.50678 113.242 1.64673 110.863 3.68871Z" fill="#84BD00"/>
<path d="M101.282 22.8357C101.282 23.1792 101.002 23.4591 100.659 23.4591H88.7568C88.4133 23.4591 88.1271 23.1792 88.1271 22.8293V10.1576L95.8688 6.56977L104.991 10.7301V6.67155L95.8624 2.50488L84.4375 7.7975V22.8357C84.4375 25.2212 86.3713 27.155 88.7568 27.155H100.665C103.051 27.155 104.985 25.2212 104.985 22.8357V15.1894H101.295V22.8357H101.282Z" fill="#007A33"/>
<path d="M119.014 22.887V17.4735C119.014 15.1325 117.112 13.2305 114.771 13.2305H93.8867V16.92H114.771C115.076 16.92 115.318 17.1681 115.318 17.4671V22.8806C115.318 23.1859 115.07 23.4277 114.771 23.4277H106.959V28.0269L113.168 34.4328H118.225L118.27 34.3946L111.228 27.13H114.777C117.118 27.13 119.02 25.2279 119.02 22.887H119.014Z" fill="#007A33"/>
<path d="M10.1781 40.9725V42.2511H0V40.9725H10.1781ZM6.81298 39.9738C7.11196 38.4344 7.19466 37.1875 7.19466 35.8262V34.8593H1.22137V33.5361H8.70229V35.4382C8.70229 37.7092 8.5687 38.7143 8.30789 40.1583L6.81298 39.9802V39.9738Z" fill="#007A33"/>
<path d="M12.5759 38.0015C14.249 38.0015 15.693 37.976 17.2006 37.8361L17.3342 39.0893C15.9093 39.2419 14.1408 39.2674 11.0938 39.2674V35.5778H14.7006V34.3692H11.0938V33.1033H16.1828V36.7928H12.5759V38.0015ZM14.1281 42.2508H19.866V43.5422H12.6141V40.1834H14.1345V42.2508H14.1281ZM19.6879 40.5078H18.1803V32.5371H19.6879V40.5078Z" fill="#007A33"/>
<path d="M23.1731 39.7318H24.3309C25.4187 39.7318 26.6464 39.6618 27.7597 39.5155L27.9251 40.7814C26.7991 40.9468 25.4251 41.0104 23.9683 41.0104H21.6719V36.4939H25.2597V34.6809H21.6719V33.4022H26.7482V37.7279H23.1668V39.7381L23.1731 39.7318ZM30.2597 43.6503H28.7393V32.5371H30.2597V43.6503Z" fill="#007A33"/>
<path d="M37.1952 38.8731V40.9787H41.5336V42.2573H31.3555V40.9787H35.6939V38.8731H32.7422V33.415H40.1532V38.8731H37.2015H37.1952ZM34.2435 37.6072H38.6392V34.6809H34.2435V37.6072Z" fill="#007A33"/>
<path d="M46.4443 33.0529V34.2933H43.5881V36.6088C44.9494 36.6216 45.7891 36.5707 46.8769 36.4434L47.0232 37.6266C45.91 37.8175 44.9113 37.8556 42.125 37.8556V33.0529H46.4507H46.4443ZM51.2662 38.5999V41.7424H45.4583V42.5694H51.527V43.7653H44.0016V40.6101H49.8095V39.7831H43.9443V38.5999H51.2662ZM47.6721 36.0045H45.8464V34.7513H47.6721V32.6839H49.097V38.0719H47.6721V36.0045ZM51.2662 38.0974H49.8349V32.5439H51.2662V38.0974Z" fill="#007A33"/>
<path d="M54.3845 37.6198C56.0576 37.6198 57.5016 37.5944 59.0092 37.4544L59.1428 38.6949C57.7179 38.8539 55.9494 38.873 52.9023 38.873V35.3743H56.5092V34.3374H52.9023V33.0842H57.9914V36.5829H54.3845V37.6198ZM54.5499 41.9519V41.4748C54.5499 40.2216 55.9494 39.4328 58.0359 39.4328C60.1224 39.4328 61.5219 40.2216 61.5219 41.4748V41.9519C61.5219 43.205 60.1224 43.9939 58.0359 43.9939C55.9494 43.9939 54.5499 43.205 54.5499 41.9519ZM56.0194 41.5829V41.8437C56.0194 42.2954 56.7955 42.7661 58.0359 42.7661C59.2764 42.7661 60.0525 42.3017 60.0525 41.8437V41.5829C60.0525 41.144 59.2764 40.6605 58.0359 40.6605C56.7955 40.6605 56.0194 41.1376 56.0194 41.5829ZM61.4965 39.2992H59.9889V32.5371H61.4965V39.2992Z" fill="#007A33"/>
<path d="M63.0902 33.6628H65.3484V32.4414H66.8561V33.6628H68.9935V34.9287H66.8561V35.4058C66.8561 35.9783 66.9769 36.29 67.6067 36.7544C68.0838 37.1106 68.6818 37.4923 69.3243 37.8867L68.5355 38.9618C68.0329 38.6501 67.4986 38.2938 67.0278 37.9694C66.5126 37.6132 66.2263 37.3842 66.1818 37.2633H66.169C66.1182 37.4032 65.7365 37.7277 65.1894 38.1475C64.6614 38.5419 64.1843 38.8981 63.5736 39.3053L62.7148 38.192C63.4655 37.6895 64.197 37.1551 64.7123 36.7226C65.1322 36.3663 65.3484 35.991 65.3484 35.3994V34.9223H63.0902V33.6564V33.6628ZM64.7505 41.8943V41.3918C64.7505 40.1704 66.15 39.2989 68.1538 39.2989C70.1576 39.2989 71.5571 40.1704 71.5571 41.3918V41.8943C71.5571 43.1157 70.1576 43.9872 68.1538 43.9872C66.15 43.9872 64.7505 43.1157 64.7505 41.8943ZM66.2327 41.4999V41.7862C66.2327 42.2378 66.9515 42.7658 68.1538 42.7658C69.3561 42.7658 70.0749 42.2378 70.0749 41.7862V41.4999C70.0749 41.0546 69.3561 40.5203 68.1538 40.5203C66.9515 40.5203 66.2327 41.061 66.2327 41.4999ZM71.5253 35.1322H72.982V36.449H71.5253V39.2353H70.0176V32.5432H71.5253V35.1386V35.1322Z" fill="#007A33"/>
<path d="M77.5 40.9718V38.7835H79.0077V40.9718H83.3461V42.2504H73.168V40.9718H77.5064H77.5ZM74.4148 33.4336H82.0865V34.7122H79.014V35.0112C79.014 35.7746 79.2876 36.2326 80.1145 36.7351C80.8525 37.1868 81.6921 37.6193 82.6591 38.1092L81.9911 39.2796C81.2023 38.898 80.1018 38.3 79.3385 37.8484C78.715 37.4794 78.4033 37.2122 78.3016 37.0023H78.2888C78.1934 37.2313 77.8245 37.4921 77.1756 37.8738C76.4122 38.3255 75.3245 38.9107 74.5229 39.3051L73.8423 38.1092C74.8092 37.6193 75.6489 37.1868 76.3868 36.7351C77.2138 36.2326 77.4873 35.7809 77.4873 35.0112V34.7122H74.4148V33.4336Z" fill="#007A33"/>
<path d="M88.2121 39.0129C87.8431 38.7012 87.3406 38.2496 87.0289 37.9633C86.6726 37.6262 86.4691 37.4162 86.3927 37.2318H86.38C86.31 37.4353 86.1319 37.6516 85.7948 37.9951C85.4831 38.3196 84.936 38.8539 84.338 39.3946L83.3711 38.3895C83.8736 37.9442 84.3889 37.4544 84.866 36.9582C85.4513 36.3348 85.5976 35.845 85.5976 35.0562V33.1223H87.0797V34.9862C87.0797 35.775 87.1879 36.2394 87.7731 36.8246C88.193 37.2445 88.6319 37.6516 89.0963 38.046L88.2121 39.0129ZM87.2324 42.2445H93.2439V43.5358H85.7184V39.8526H87.2388V42.2445H87.2324ZM89.4907 36.2076H88.1739V34.8908H89.4907V32.6834H90.9156V40.1771H89.4907V36.2076ZM93.0721 40.4379H91.6408V32.5371H93.0721V40.4379Z" fill="#007A33"/>
<path d="M94.668 33.4027H99.8652V34.6814H96.1756V36.4752H99.4835V37.7539H96.1756V39.6432H97.0026C98.1349 39.6432 99.5471 39.5923 100.673 39.4396L100.826 40.7055C99.7125 40.8836 98.1031 40.9218 96.6463 40.9218H94.6743V33.4091L94.668 33.4027ZM100.094 36.4244H101.92V32.5439H103.44V43.6572H101.92V37.7157H100.094V36.4244Z" fill="#007A33"/>
</g>
<defs>
<clipPath id="clip0_6008_177662">
<rect width="120" height="43.1489" fill="white" transform="translate(0 0.851562)"/>
</clipPath>
</defs>
</svg>
